<svg id="Capa_1" enable-background="new 0 0 512 512" height="512" viewBox="0 0 512 512" width="512" xmlns="http://www.w3.org/2000/svg"><g><path d="m512 90.952h-256l-20.016 165.048 20.016 165.048h256z" fill="#00aa95"/><path d="m469.063 211.024c-42.533 0-77.135-34.603-77.135-77.135v-12.937h-135.928l-20.016 135.048 20.016 135.048h135.928v-12.937c0-42.533 34.603-77.135 77.135-77.135h12.937v-89.952z" fill="#00cc76"/><path d="m0 90.952h256v330.096h-256z" fill="#00cc76"/><path d="m120.072 120.952v12.937c0 42.533-34.603 77.135-77.135 77.135h-12.937v89.952h12.937c42.533 0 77.135 34.603 77.135 77.135v12.937h135.928v-270.096z" fill="#a5e887"/><path d="m482 181.024h-12.937c-25.99 0-47.135-21.145-47.135-47.135v-12.937h60.072z" fill="#00cc76"/><path d="m90.072 120.952v12.937c0 25.99-21.145 47.135-47.135 47.135h-12.937v-60.072z" fill="#a5e887"/><path d="m30 330.976h12.937c25.99 0 47.135 21.145 47.135 47.135v12.937h-60.072z" fill="#a5e887"/><path d="m421.928 391.048v-12.937c0-25.99 21.145-47.135 47.135-47.135h12.937v60.072z" fill="#00cc76"/><path d="m120.952 241h30v30h-30z" fill="#fff5f5"/><g fill="#e1ebf0"><path d="m361.048 241h30v30h-30z"/><path d="m316.024 210.952v-30h-45.024v-30h-15l-10.008 43.715 10.008 16.285z"/><path d="m286.024 271v30.048h-30.024l-10.008 15.619 10.008 44.381h15v-30h45.024v-90.048h-60.024l-10.008 15 10.008 15z"/></g><path d="m195.976 301.048v30h45.024v30h15v-60z" fill="#fff5f5"/><path d="m225.976 210.952h30.024v-60h-15v30h-45.024v90.048h60.024v-30h-30.024z" fill="#fff5f5"/></g></svg>