<svg id="Capa_1" enable-background="new 0 0 512 512" height="512" viewBox="0 0 512 512" width="512" xmlns="http://www.w3.org/2000/svg"><g><path d="m512 73.602h-217.223l-20.016 143.621 20.016 143.621h217.223z" fill="#00aa95"/><path d="m77.555 73.602h217.223v287.242h-217.223z" fill="#00cc76"/><path d="m473.223 112.379h-217.223l-20.016 143.621 20.016 143.621h217.223z" fill="#00cc76"/><path d="m38.777 112.379h217.223v287.242h-217.223z" fill="#a5e887"/><path d="m434.445 151.156h-217.222l-20.016 143.621 20.016 143.621h217.222z" fill="#00aa95"/><path d="m0 151.156h217.223v287.242h-217.223z" fill="#00cc76"/><path d="m404.445 218.263h-.813c-20.012 0-36.293-16.281-36.293-36.293v-.813h37.106z" fill="#00cc76"/><path d="m67.106 181.156v.813c0 20.012-16.281 36.293-36.293 36.293h-.813v-37.106z" fill="#a5e887"/><path d="m30 371.292h.813c20.012 0 36.293 16.281 36.293 36.293v.813h-37.106z" fill="#a5e887"/><path d="m367.339 408.398v-.813c0-20.012 16.281-36.293 36.293-36.293h.813v37.106z" fill="#00cc76"/><path d="m403.632 248.263c-36.554 0-66.293-29.739-66.293-66.293v-.813h-120.116l-20.016 113.621 20.016 113.621h120.116v-.813c0-36.554 29.739-66.293 66.293-66.293h.813v-93.029h-.813z" fill="#00cc76"/><path d="m97.106 181.156v.813c0 36.554-29.739 66.293-66.293 66.293h-.813v93.029h.813c36.554 0 66.293 29.739 66.293 66.293v.813h120.116v-227.241z" fill="#a5e887"/><path d="m71.812 279.777h33.553v30h-33.553z" fill="#fff5f5"/><path d="m329.08 279.777h33.554v30h-33.554z" fill="#e1ebf0"/><path d="m217.223 218.209-10.008 15.597 10.008 14.403c25.677 0 46.567 20.89 46.567 46.568s-20.89 46.568-46.567 46.568l-10.008 15.313 10.008 14.687c42.22 0 76.567-34.349 76.567-76.568s-34.348-76.568-76.567-76.568z" fill="#e1ebf0"/><path d="m170.654 294.777c0-25.678 20.891-46.568 46.568-46.568v-30c-42.22 0-76.568 34.348-76.568 76.568s34.349 76.568 76.568 76.568v-30c-25.677 0-46.568-20.89-46.568-46.568z" fill="#fff5f5"/></g></svg>