<svg id="Capa_1" enable-background="new 0 0 512 512" height="512" viewBox="0 0 512 512" width="512" xmlns="http://www.w3.org/2000/svg"><g><path d="m256 0-20.016 256 20.016 256c141.385 0 256-114.615 256-256s-114.615-256-256-256z" fill="#b4d2d7"/><path d="m0 256c0 141.385 114.615 256 256 256v-512c-141.385 0-256 114.615-256 256z" fill="#e1ebf0"/><path d="m256 40.032-20.016 215.968 20.016 215.968c119.276 0 215.968-96.692 215.968-215.968s-96.692-215.968-215.968-215.968z" fill="#e1ebf0"/><path d="m40.032 256c0 119.276 96.692 215.968 215.968 215.968v-431.936c-119.276 0-215.968 96.692-215.968 215.968z" fill="#fff5f5"/><path d="m256 80.064-20.016 175.936 20.016 175.936c97.011 0 175.936-78.925 175.936-175.936s-78.925-175.936-175.936-175.936z" fill="#ffb655"/><path d="m80.064 256c0 97.011 78.925 175.936 175.936 175.936v-351.872c-97.011 0-175.936 78.925-175.936 175.936z" fill="#ffda44"/><path d="m127.987 241h31.867v30h-31.867z" fill="#fff68e"/><g fill="#ffda44"><path d="m352.146 241h31.867v30h-31.867z"/><path d="m316.024 210.952v-30h-45.024v-30h-15l-10.008 43.715 10.008 16.285z"/><path d="m286.024 271v30.048h-30.024l-10.008 15.619 10.008 44.381h15v-30h45.024v-90.048h-60.024l-10.008 15 10.008 15z"/></g><path d="m195.976 301.048v30h45.024v30h15v-60z" fill="#fff68e"/><path d="m225.976 210.952h30.024v-60h-15v30h-45.024v90.048h60.024v-30h-30.024z" fill="#fff68e"/></g></svg>