<svg id="Capa_1" enable-background="new 0 0 512 512" height="512" viewBox="0 0 512 512" width="512" xmlns="http://www.w3.org/2000/svg"><g><path d="m406.65 244.123 105.35-20.016v-63.785h-85.334z" fill="#ffda44"/><path d="m426.666 160.322h-85.333l-20.016 83.801h105.349z" fill="#fff68e"/><path d="m406.65 307.908 105.35-20.016v-63.785h-85.334z" fill="#ffb655"/><path d="m426.666 224.107h-85.333l-20.016 83.801h105.349z" fill="#ffda44"/><path d="m406.65 371.694 105.35-20.016v-63.786h-85.334z" fill="#ffda44"/><path d="m426.666 287.892h-85.333l-20.016 83.802h105.349z" fill="#fff68e"/><path d="m426.666 415.463h85.334v-63.785h-85.334l-20.016 31.893z" fill="#ffb655"/><path d="m341.333 351.678-20.016 31.893 20.016 31.892h85.333v-63.785z" fill="#ffda44"/><path d="m256 96.536-20.016 83.802 105.349-20.016v-63.786z" fill="#ffb655"/><path d="m256 96.536h-85.333v63.786l85.333 20.016z" fill="#ffda44"/><path d="m235.984 244.123 105.349-20.016v-63.785h-85.333z" fill="#ffda44"/><path d="m256 160.322h-85.333v63.785l85.333 20.016z" fill="#fff68e"/><path d="m235.984 307.908 105.349-20.016v-63.785h-85.333z" fill="#ffb655"/><path d="m256 224.107h-85.333l-20.017 83.801h105.35z" fill="#ffda44"/><path d="m235.984 371.694 105.349-20.016v-63.786h-85.333z" fill="#ffda44"/><path d="m256 287.892h-85.333l-20.017 83.802h105.35z" fill="#fff68e"/><path d="m256 415.463h85.333v-63.785h-85.333l-20.016 31.893z" fill="#ffb655"/><path d="m170.667 351.678-20.017 31.893 20.017 31.892h85.333v-63.785z" fill="#ffda44"/><path d="m65.317 307.908 105.35-20.016v-63.785h-85.334z" fill="#ffb655"/><path d="m85.333 224.107h-85.333v63.785l85.333 20.016z" fill="#ffda44"/><path d="m65.317 371.694 105.35-20.016v-63.786h-85.334z" fill="#ffda44"/><path d="m85.333 287.892h-85.333v63.786l85.333 20.016z" fill="#fff68e"/><path d="m85.333 415.463h85.334v-63.785h-85.334l-20.016 31.893z" fill="#ffb655"/><path d="m0 351.678h85.333v63.785h-85.333z" fill="#ffda44"/></g></svg>