<svg id="Capa_1" enable-background="new 0 0 512 512" height="512" viewBox="0 0 512 512" width="512" xmlns="http://www.w3.org/2000/svg"><g><path d="m133.484 32-20.795 84.016 154.28-20.016v-64z" fill="#ffb655"/><path d="m133.484 32h-133.484v64l133.484 20.016z" fill="#ffda44"/><path d="m112.689 180.016 154.28-20.016v-64h-133.485z" fill="#ffda44"/><path d="m133.484 96h-133.484v64l133.484 20.016z" fill="#fff68e"/><path d="m112.689 244.016 154.28-20.016v-64h-133.485z" fill="#ffb655"/><path d="m133.484 160h-133.484v64l133.484 20.016z" fill="#ffda44"/><path d="m112.689 308.016 154.28-20.016v-64h-133.485z" fill="#ffda44"/><path d="m133.484 224h-133.484v64l133.484 20.016z" fill="#fff68e"/><path d="m112.689 372.016 154.28-20.016v-64h-133.485z" fill="#ffb655"/><path d="m133.484 288h-133.484v64l133.484 20.016z" fill="#ffda44"/><path d="m112.689 436.016 154.28-20.016v-64h-133.485z" fill="#ffda44"/><path d="m133.484 352h-133.484v64l133.484 20.016z" fill="#fff68e"/><path d="m133.484 480h133.485v-64h-133.485l-20.795 32z" fill="#ffb655"/><path d="m0 416h133.484v64h-133.484z" fill="#ffda44"/><path d="m369.468 194.937-20.016 142.532 20.016 142.531c78.718 0 142.532-63.814 142.532-142.532s-63.814-142.531-142.532-142.531z" fill="#ffb655"/><path d="m226.937 337.468c0 78.718 63.813 142.532 142.531 142.532v-285.063c-78.718 0-142.531 63.813-142.531 142.531z" fill="#ffda44"/><path d="m369.468 234.937-20.016 101.063 20.016 104c56.536 0 102.532-45.996 102.532-102.532s-45.996-102.531-102.532-102.531z" fill="#ffda44"/><path d="m266.937 337.468c0 56.536 45.996 102.532 102.532 102.532v-205.063c-56.537 0-102.532 45.995-102.532 102.531z" fill="#fff68e"/><path d="m369.468 264.937-20.016 72.532 20.016 72.531c39.994 0 72.532-32.538 72.532-72.532s-32.538-72.531-72.532-72.531z" fill="#ffb655"/><path d="m296.937 337.468c0 39.994 32.538 72.532 72.532 72.532v-145.063c-39.995 0-72.532 32.537-72.532 72.531z" fill="#ffda44"/></g></svg>