<svg id="Capa_1" enable-background="new 0 0 512 512" height="512" viewBox="0 0 512 512" width="512" xmlns="http://www.w3.org/2000/svg"><g><path d="m512 0h-192.266l-63.734 350.112 256-20.016z" fill="#00aa95"/><path d="m0 0v330.096l256 20.016-63.734-350.112z" fill="#00cc76"/><path d="m469.064 120.072c-42.533 0-77.135-34.603-77.135-77.135v-12.937h-135.929l-20.016 135.048 20.016 135.048h135.928v-12.937c0-42.533 34.603-77.135 77.135-77.135h12.937v-89.952z" fill="#00cc76"/><path d="m120.072 30v12.937c0 42.533-34.603 77.135-77.135 77.135h-12.937v89.952h12.937c42.533 0 77.135 34.603 77.135 77.135v12.937h135.928v-270.096z" fill="#a5e887"/><path d="m482 90.072h-12.937c-25.99 0-47.135-21.145-47.135-47.135v-12.937h60.072z" fill="#00cc76"/><path d="m90.072 30v12.937c0 25.99-21.145 47.135-47.135 47.135h-12.937v-60.072z" fill="#a5e887"/><path d="m30 240.024h12.937c25.99 0 47.135 21.145 47.135 47.135v12.937h-60.072z" fill="#a5e887"/><path d="m421.928 300.096v-12.937c0-25.99 21.145-47.135 47.135-47.135h12.937v60.072z" fill="#00cc76"/><path d="m120.952 150.048h30v30h-30z" fill="#fff5f5"/><path d="m361.048 150.048h30v30h-30z" fill="#e1ebf0"/><path d="m299.718 380.429 212.282-20.016v-30.317h-192.266z" fill="#00cc76"/><path d="m299.718 410.747 212.282-20.016v-30.318h-192.266z" fill="#00aa95"/><path d="m299.718 441.064 212.282-20.016v-30.317h-192.266z" fill="#00cc76"/><path d="m299.718 471.381 212.282-20.016v-30.317h-192.266z" fill="#00aa95"/><path d="m299.718 501.699 212.282-20.016v-30.318h-192.266z" fill="#00cc76"/><path d="m319.734 512h192.266v-30.317h-212.282z" fill="#00aa95"/><path d="m212.282 380.429-212.282-20.016v-30.317h192.266z" fill="#a5e887"/><path d="m212.282 410.747-212.282-20.016v-30.318h192.266z" fill="#00cc76"/><path d="m212.282 441.064-212.282-20.016v-30.317h192.266z" fill="#a5e887"/><path d="m212.282 471.381-212.282-20.016v-30.317h192.266z" fill="#00cc76"/><path d="m212.282 501.699-212.282-20.016v-30.318h192.266z" fill="#a5e887"/><path d="m192.266 512h-192.266v-30.317h212.282z" fill="#00cc76"/><path d="m256 512-20.016-256 20.016-256h63.734v512z" fill="#e1ebf0"/><path d="m192.266 0h63.734v512h-63.734z" fill="#fff5f5"/></g></svg>