<svg id="Capa_1" enable-background="new 0 0 512 512" height="512" viewBox="0 0 512 512" width="512" xmlns="http://www.w3.org/2000/svg"><g><path d="m256 0-20.016 256 20.016 256c141.385 0 256-114.615 256-256s-114.615-256-256-256z" fill="#ffb655"/><path d="m0 256c0 141.385 114.615 256 256 256v-512c-141.385 0-256 114.615-256 256z" fill="#ffda44"/><path d="m256 40.032-20.016 215.968 20.016 215.968c119.276 0 215.968-96.692 215.968-215.968s-96.692-215.968-215.968-215.968z" fill="#ffda44"/><path d="m40.032 256c0 119.276 96.692 215.968 215.968 215.968v-431.936c-119.276 0-215.968 96.692-215.968 215.968z" fill="#fff68e"/><path d="m256 80.064-20.016 175.936 20.016 175.936c97.011 0 175.936-78.925 175.936-175.936s-78.925-175.936-175.936-175.936z" fill="#ffb655"/><path d="m80.064 256c0 97.011 78.925 175.936 175.936 175.936v-351.872c-97.011 0-175.936 78.925-175.936 175.936z" fill="#ffda44"/><path d="m117.356 241h31.867v30h-31.867z" fill="#fff68e"/><path d="m362.776 241h31.867v30h-31.867z" fill="#ffda44"/><path d="m282.577 177.214h-11.577v-32.801h-15l-10.008 43.92 10.008 18.881h26.577c9.314 0 16.893 7.578 16.893 16.893 0 9.314-7.578 16.893-16.893 16.893h-26.577l-10.008 15 10.008 15h26.577c9.314 0 16.893 7.578 16.893 16.893s-7.578 16.893-16.893 16.893h-26.577l-10.008 14.882 10.008 47.918h15v-32.801h11.577c25.856 0 46.893-21.036 46.893-46.893 0-12.308-4.774-23.518-12.558-31.893 7.785-8.375 12.558-19.584 12.558-31.893 0-25.856-21.036-46.892-46.893-46.892z" fill="#ffda44"/><path d="m223.161 304.786v-33.786h32.839v-30h-32.839v-33.786h32.839v-62.8h-15v32.8h-47.839v157.572h47.839v32.8h15v-62.8z" fill="#fff68e"/></g></svg>