<svg id="Capa_1" enable-background="new 0 0 512 512" height="512" viewBox="0 0 512 512" width="512" xmlns="http://www.w3.org/2000/svg"><g><path d="m512 30.024h-60.916l-215.1 20.016 20.016 310.984h256z" fill="#e1ebf0"/><path d="m0 30.024v331h256v-310.984l-195.084-20.016z" fill="#fff5f5"/><path d="m482 225.928h-226l-20.016 45.048 20.016 60.048h226z" fill="#b4d2d7"/><path d="m30 225.928h226v105.096h-226z" fill="#e1ebf0"/><path d="m421.048 285.976h-185.064l20.016 196h165.048z" fill="#00aa95"/><path d="m90.952 285.976h165.048v196h-165.048z" fill="#00cc76"/><path d="m120.952 391.904h12.937c25.99 0 47.135 21.145 47.135 47.135v12.937h-60.072z" fill="#a5e887"/><path d="m330.976 451.976v-12.937c0-25.99 21.145-47.135 47.135-47.135h12.937v60.072z" fill="#00cc76"/><path d="m300.976 451.976v-12.937c0-42.533 34.603-77.135 77.135-77.135h12.937v-75.928h-155.064l20.016 166z" fill="#00cc76"/><path d="m120.952 361.904h12.937c42.533 0 77.135 34.603 77.135 77.135v12.937h44.976v-166h-135.048z" fill="#a5e887"/><path d="m451.084 30.024h-195.084l-20.016 75.428 20.016 75.428h195.084z" fill="#b4d2d7"/><path d="m60.916 30.024h195.084v150.856h-195.084z" fill="#e1ebf0"/><path d="m451.084 270.976h-195.084l-10.008 15 10.008 15h195.084z" fill="#04303e"/><path d="m60.916 270.976h195.084v30h-195.084z" fill="#09607d"/><path d="m241 331.024h30v30h-30z" fill="#fff5f5"/></g></svg>