<svg id="Capa_1" enable-background="new 0 0 512 512" height="512" viewBox="0 0 512 512" width="512" xmlns="http://www.w3.org/2000/svg"><g><path d="m256 0-20.016 223.876 20.016 288.124s223.876-106.983 223.876-288.124c0-123.446-100.431-223.876-223.876-223.876z" fill="#ff415b"/><path d="m32.124 223.876c0 181.141 223.876 288.124 223.876 288.124v-512c-123.445 0-223.876 100.43-223.876 223.876z" fill="#ff7c48"/><path d="m256 63.95-20.016 159.926 20.016 159.926c88.183 0 159.926-71.742 159.926-159.926s-71.743-159.926-159.926-159.926z" fill="#e1ebf0"/><path d="m96.074 223.876c0 88.184 71.742 159.926 159.926 159.926v-319.852c-88.184 0-159.926 71.742-159.926 159.926z" fill="#fff5f5"/><path d="m316.024 178.828v-30h-45.024v-30h-15l-10.008 43.715 10.008 16.285z" fill="#00aa95"/><path d="m286.024 238.876v30.048h-30.024l-10.008 15.619 10.008 44.381h15v-30h45.024v-90.048h-60.024l-10.008 15 10.008 15z" fill="#00aa95"/><g fill="#00cc76"><path d="m195.976 268.924v30h45.024v30h15v-60z"/><path d="m225.976 178.828h30.024v-60h-15v30h-45.024v90.048h60.024v-30h-30.024z"/></g></g></svg>