<svg id="Capa_1" enable-background="new 0 0 512 512" height="512" viewBox="0 0 512 512" width="512" xmlns="http://www.w3.org/2000/svg"><g><path d="m512 0h-256l-20.016 256 20.016 256h256z" fill="#e1ebf0"/><path d="m0 0h256v512h-256z" fill="#fff5f5"/><path d="m463.266 48.734h-207.266l-20.016 207.266 20.016 207.266h207.266z" fill="#87a0af"/><path d="m48.734 48.734h207.266v414.531h-207.266z" fill="#b4d2d7"/><path d="m433.266 78.734h-177.266l-20.016 177.266 20.016 177.266h177.266z" fill="#b4d2d7"/><path d="m78.734 78.734h177.266v354.531h-177.266z" fill="#e1ebf0"/><path d="m256 145.398-20.016 110.602 20.016 110.602c60.986 0 110.602-49.616 110.602-110.602s-49.616-110.602-110.602-110.602z" fill="#87a0af"/><path d="m145.398 256c0 60.986 49.615 110.602 110.602 110.602v-221.204c-60.986 0-110.602 49.616-110.602 110.602z" fill="#b4d2d7"/><path d="m256 175.398-20.016 80.602 20.016 80.602c44.444 0 80.602-36.158 80.602-80.602s-36.158-80.602-80.602-80.602z" fill="#b4d2d7"/><path d="m175.398 256c0 44.444 36.157 80.602 80.602 80.602v-161.204c-44.444 0-80.602 36.158-80.602 80.602z" fill="#e1ebf0"/><path d="m111.535 112.469h31.867v30h-31.867z" fill="#b4d2d7"/><path d="m111.535 369.531h31.867v30h-31.867z" fill="#b4d2d7"/><g fill="#87a0af"><path d="m368.598 112.469h31.867v30h-31.867z"/><path d="m368.598 369.531h31.867v30h-31.867z"/><path d="m256 224.133-20.016 31.867 20.016 31.867c17.6 0 31.867-14.267 31.867-31.867s-14.267-31.867-31.867-31.867z"/></g><path d="m224.133 256c0 17.6 14.267 31.867 31.867 31.867v-63.734c-17.6 0-31.867 14.267-31.867 31.867z" fill="#b4d2d7"/></g></svg>