<svg id="Capa_1" enable-background="new 0 0 512 512" height="512" viewBox="0 0 512 512" width="512" xmlns="http://www.w3.org/2000/svg"><g><path d="m287.893 65.897-20.016 211.062 180.338 105.359h63.785v-316.421z" fill="#ffb655"/><path d="m63.785 65.897v63.785l224.108 147.277v-211.062z" fill="#ffda44"/><path d="m224.107 446.103h224.108v-188.85l-244.124-20.016z" fill="#4895ff"/><path d="m224.107 129.682-20.016 83.802 244.124-20.016v-63.786z" fill="#4895ff"/><path d="m224.107 129.682h-224.107v63.786l224.107 20.016z" fill="#5ecef4"/><path d="m0 257.253v188.85h224.107v-208.866z" fill="#5ecef4"/><path d="m224.107 257.253h224.108v-63.785h-224.108l-20.016 31.892z" fill="#04303e"/><path d="m0 193.468h224.107v63.785h-224.107z" fill="#09607d"/><path d="m47.839 367.318h80.59v30h-80.59z" fill="#fff5f5"/><path d="m400.376 367.318h-176.269l-10.008 15 10.008 15h176.269z" fill="#e1ebf0"/><path d="m160.322 367.318h63.785v30h-63.785z" fill="#fff5f5"/></g></svg>