<svg id="Capa_1" enable-background="new 0 0 512 512" height="512" viewBox="0 0 512 512" width="512" xmlns="http://www.w3.org/2000/svg"><g><path d="m451.06 0h-195.06l-20.016 256.572 20.016 255.428h195.06z" fill="#e1ebf0"/><path d="m60.94 0h195.06v512h-195.06z" fill="#fff5f5"/><path d="m120.94 300.132h54.996v30h-54.996z" fill="#ff415b"/><path d="m336.064 420.228h54.996v30h-54.996z" fill="#4895ff"/><path d="m120.94 420.228h135.06v30h-135.06z" fill="#09607d"/><path d="m316.024 120v-30h-45.024v-30h-15l-10.008 43.715 10.008 16.285z" fill="#00aa95"/><path d="m286.024 180.048v30.048h-30.024l-10.008 15.618 10.008 44.382h15v-30h45.024v-90.048h-60.024l-10.008 15 10.008 15z" fill="#00aa95"/><path d="m195.976 210.096v30h45.024v30h15v-60z" fill="#00cc76"/><path d="m225.976 120h30.024v-60h-15v30h-45.024v90.048h60.024v-30h-30.024z" fill="#00cc76"/><path d="m391.06 300.132h-135.06l-10.008 15 10.008 15h135.06z" fill="#04303e"/><path d="m391.06 390.18v-30h-135.06l-10.008 15 10.008 15z" fill="#04303e"/><g fill="#09607d"><path d="m205.96 300.132h50.04v30h-50.04z"/><path d="m120.94 360.18h135.06v30h-135.06z"/></g></g></svg>