<svg id="Capa_1" enable-background="new 0 0 512 512" height="512" viewBox="0 0 512 512" width="512" xmlns="http://www.w3.org/2000/svg"><g><path d="m367.573 352.536h-131.589l20.016 159.464h90.312z" fill="#c9885b"/><path d="m144.427 352.536 21.261 159.464h90.312v-159.464z" fill="#dbad5c"/><path d="m241 191.203h30v161.333h-30z" fill="#00aa95"/><path d="m256 283.666-20.016 78.879 61.131-20.016c33.346 0 60.379-27.032 60.379-60.379v-25.578h-51.123c-21.043 0-39.563 10.771-50.371 27.094z" fill="#00cc76"/><path d="m205.629 256.572h-51.123v25.578c0 33.346 27.033 60.379 60.379 60.379l41.115 20.015v-78.879c-10.808-16.322-29.328-27.093-50.371-27.093z" fill="#a5e887"/><path d="m400.401 337.537h-144.401l-10.008 16.27 10.008 13.73h144.401z" fill="#724435"/><path d="m111.599 337.537h144.401v30h-144.401z" fill="#9b5e34"/><path d="m360.042 104.042c0-57.461-46.581-104.042-104.042-104.042l-20.016 104.042 20.016 104.043c57.461 0 104.042-46.582 104.042-104.043z" fill="#ffb655"/><path d="m151.958 104.042c0 57.461 46.581 104.042 104.042 104.042v-208.084c-57.461 0-104.042 46.581-104.042 104.042z" fill="#ffda44"/><path d="m330.042 104.042c0-40.827-33.215-74.042-74.042-74.042l-20.016 74.042 20.016 74.043c40.827 0 74.042-33.215 74.042-74.043z" fill="#ffda44"/><path d="m181.958 104.042c0 40.827 33.215 74.042 74.042 74.042v-148.084c-40.827 0-74.042 33.215-74.042 74.042z" fill="#fff68e"/></g></svg>