<svg id="Capa_1" enable-background="new 0 0 512 512" height="512" viewBox="0 0 512 512" width="512" xmlns="http://www.w3.org/2000/svg"><g><path d="m435.597 157.089c-11.108-37.235-45.595-64.389-86.44-64.389-15.763-35.8-51.53-60.807-93.157-60.807l-20.016 193.175 20.016 88.72h177.626c43.285 0 78.374-35.09 78.374-78.374 0-42.625-34.032-77.276-76.403-78.325z" fill="#e1ebf0"/><path d="m162.844 92.7c-40.846 0-75.333 27.154-86.441 64.389-42.371 1.049-76.403 35.7-76.403 78.324 0 43.285 35.089 78.374 78.374 78.374h177.626v-281.894c-41.627 0-77.394 25.007-93.156 60.807z" fill="#fff5f5"/><path d="m256 225.068-20.016 127.52 20.016 127.519c70.427 0 127.52-57.093 127.52-127.52s-57.093-127.519-127.52-127.519z" fill="#ffb655"/><path d="m128.48 352.588c0 70.427 57.093 127.52 127.52 127.52v-255.04c-70.427 0-127.52 57.092-127.52 127.52z" fill="#ffda44"/><path d="m256 255.068-20.016 97.52 20.016 97.519c53.772 0 97.52-43.747 97.52-97.52 0-53.772-43.748-97.519-97.52-97.519z" fill="#ffda44"/><path d="m158.48 352.587c0 53.773 43.747 97.52 97.52 97.52v-195.04c-53.772.001-97.52 43.748-97.52 97.52z" fill="#fff68e"/><path d="m256 295.1-20.016 57.488 20.016 57.487c31.699 0 57.488-25.789 57.488-57.488 0-31.698-25.789-57.487-57.488-57.487z" fill="#ffb655"/><path d="m198.512 352.588c0 31.699 25.789 57.488 57.488 57.488v-114.976c-31.699 0-57.488 25.789-57.488 57.488z" fill="#ffda44"/></g></svg>