<svg id="Capa_1" enable-background="new 0 0 512 512" height="512" viewBox="0 0 512 512" width="512" xmlns="http://www.w3.org/2000/svg"><g><path d="m451.964 75.048h-40l-175.98 20.016 20.016 416.936h195.964z" fill="#c9885b"/><path d="m60.036 75.048v436.952h195.964v-416.936l-155.964-20.016z" fill="#dbad5c"/><path d="m411.964 75.048h-65.048l-110.932 20.016 20.016 376.936h155.964z" fill="#e1ebf0"/><path d="m100.036 75.048v396.952h155.964v-376.936l-90.916-20.016z" fill="#fff5f5"/><path d="m346.916 75.048h-30.024l-80.908 20.016 20.016 55.032h90.916z" fill="#b4d2d7"/><path d="m165.084 75.048v75.048h90.916v-55.032l-60.892-20.016z" fill="#e1ebf0"/><path d="m316.892 75.048v-14.156c0-33.576-27.316-60.892-60.892-60.892l-20.016 95.064z" fill="#b4d2d7"/><path d="m256 0c-33.576 0-60.892 27.316-60.892 60.892v14.156l60.892 20.016z" fill="#e1ebf0"/><path d="m316.916 75.048h-.024-60.892l-20.016 22.524 20.016 22.524h60.916z" fill="#87a0af"/><path d="m195.108 75.048h-.024v45.048h60.916v-45.048z" fill="#b4d2d7"/><path d="m316.024 240.12v-30h-45.024v-30h-15l-10.008 43.715 10.008 16.285z" fill="#00aa95"/><path d="m286.024 300.168v30.048h-30.024l-10.008 15.619 10.008 44.381h15v-30h45.024v-90.048h-60.024l-10.008 15 10.008 15z" fill="#00aa95"/><g fill="#00cc76"><path d="m195.976 330.216v30h45.024v30h15v-60z"/><path d="m225.976 240.12h30.024v-60h-15v30h-45.024v90.048h60.024v-30h-30.024z"/></g></g></svg>