<svg id="Capa_1" enable-background="new 0 0 512 512" height="512" viewBox="0 0 512 512" width="512" xmlns="http://www.w3.org/2000/svg"><g><path d="m331.916 0h120.036v75.048h-120.036z" fill="#b4d2d7"/><path d="m361.94 30.024h59.988v45.024h-59.988z" fill="#04303e"/><path d="m481.976 60.048h-225.976l-20.016 256.808h245.992z" fill="#e1ebf0"/><path d="m30.024 60.048h225.976v256.808h-225.976z" fill="#fff5f5"/><path d="m512 301.856h-256l-20.016 120.096 20.016 90.048h256z" fill="#b4d2d7"/><path d="m0 301.856h256v210.144h-256z" fill="#e1ebf0"/><path d="m80.064 120.096h150.903v90.048h-150.903z" fill="#00cc76"/><path d="m110.064 150.096h90.903v30.048h-90.903z" fill="#09607d"/><g fill="#4895ff"><path d="m281.864 120.096h30.023v30h-30.023z"/><path d="m341.912 120.096h30.023v30h-30.023z"/><path d="m401.96 120.096h30.023v30h-30.023z"/><path d="m281.864 180.144h30.023v30h-30.023z"/><path d="m341.912 180.144h30.023v30h-30.023z"/><path d="m401.96 180.144h30.023v30h-30.023z"/><path d="m281.864 240.192h30.023v30h-30.023z"/></g><path d="m341.912 240.192h30.023v30h-30.023z" fill="#ffb655"/><path d="m401.96 240.192h30.023v30h-30.023z" fill="#ff415b"/><path d="m80.052 240.192h150.929v30h-150.929z" fill="#b4d2d7"/><path d="m482 331.856h-30.024l-215.992 20.016 20.016 70.08h226z" fill="#e1ebf0"/><path d="m30 331.856v90.096h226v-70.08l-195.976-20.016z" fill="#fff5f5"/><path d="m451.976 331.856h-195.976l-20.016 25.02 20.016 25.02h195.976z" fill="#87a0af"/><path d="m60.024 331.856h195.976v50.04h-195.976z" fill="#b4d2d7"/><path d="m482 451.952h-226l-10.008 15.024 10.008 15.024h226z" fill="#e1ebf0"/><path d="m30 451.952h226v30.048h-226z" fill="#fff5f5"/></g></svg>