<svg id="Capa_1" enable-background="new 0 0 512 512" height="512" viewBox="0 0 512 512" width="512" xmlns="http://www.w3.org/2000/svg"><g><path d="m480.107 191.356-84.046-20.016v233.105l84.046-20.016z" fill="#e1ebf0"/><path d="m332.03 171.34v233.105l84.047-20.016v-193.073z" fill="#04303e"/><path d="m267.999 171.34v233.105l84.047-20.016v-193.073z" fill="#e1ebf0"/><path d="m288.015 384.429v-193.073l-52.031-20.016v233.105z" fill="#04303e"/><path d="m203.969 404.445 52.031-20.016v-193.073l-52.031-20.016z" fill="#09607d"/><path d="m139.938 171.34v233.105l84.047-20.016v-193.073z" fill="#fff5f5"/><path d="m75.907 171.34v233.105l84.047-20.016v-193.073z" fill="#09607d"/><path d="m31.893 191.356v193.073l64.03 20.016v-233.105z" fill="#fff5f5"/><path d="m480.107 416.322v-31.893h-224.107l-20.016 51.909z" fill="#b4d2d7"/><path d="m256 416.322-20.016 51.909 244.123-20.016v-31.893z" fill="#87a0af"/><path d="m256 384.429h-224.107v31.893l224.107 20.016z" fill="#e1ebf0"/><path d="m31.893 416.322v31.893l224.107 20.016v-51.909z" fill="#b4d2d7"/><path d="m235.984 139.448 20.016 51.908h224.107v-31.892z" fill="#b4d2d7"/><path d="m31.893 159.464v31.892h224.107v-51.908z" fill="#e1ebf0"/><path d="m480.107 159.464v-31.893l-244.123-20.016 20.016 51.909z" fill="#87a0af"/><path d="m256 107.555-224.107 20.016v31.893h224.107z" fill="#b4d2d7"/><path d="m512 63.785-256-63.785-20.016 75.048 20.016 52.523h256z" fill="#e1ebf0"/><path d="m0 63.785v63.786h256v-127.571z" fill="#fff5f5"/><path d="m512 512v-63.785h-256l-20.016 31.892 20.016 31.893z" fill="#e1ebf0"/><path d="m0 448.215h256v63.785h-256z" fill="#fff5f5"/></g></svg>