<svg id="Capa_1" enable-background="new 0 0 512 512" height="512" viewBox="0 0 512 512" width="512" xmlns="http://www.w3.org/2000/svg"><g><path d="m448.215 127.571-160.215 99.213 96.429 157.645h127.571v-256.858z" fill="#00aa95"/><path d="m384.429 354.429-55.268-117.847 119.054-79.011h33.785v196.858z" fill="#00cc76"/><path d="m256 63.785-20.016 179.526 148.445 77.333h63.786v-256.859z" fill="#00aa95"/><path d="m63.785 63.785v63.786l192.215 115.74v-179.526z" fill="#00cc76"/><path d="m256 93.786-20.016 124.799 148.445 72.059h33.785v-196.858z" fill="#00cc76"/><path d="m93.786 93.786v33.785l162.214 91.014v-124.799z" fill="#a5e887"/><path d="m384.429 127.571h-33.761l-20.016 163.073 20.016 157.571h33.761z" fill="#724435"/><path d="m320.644 127.571-20.016 163.073 20.016 157.571h30.024v-320.644z" fill="#c9885b"/><path d="m320.644 127.571h-128.429l-20.016 163.073 20.016 157.571h128.429z" fill="#724435"/><path d="m0 127.571h192.215v320.644h-192.215z" fill="#9b5e34"/><g fill="#724435"><path d="m47.801 176.305h31.867v30h-31.867z"/><path d="m47.801 369.48h31.867v30h-31.867z"/></g></g></svg>