<svg id="Capa_1" enable-background="new 0 0 512 512" height="512" viewBox="0 0 512 512" width="512" xmlns="http://www.w3.org/2000/svg"><g><path d="m512 75.275h-256l-20.016 177.701 20.016 183.749h256z" fill="#4895ff"/><path d="m0 75.275h256v361.451h-256z" fill="#5ecef4"/><path d="m48.734 124.009h93.785v93.785h-93.785z" fill="#fff68e"/><path d="m78.734 154.009h33.785v33.785h-33.785z" fill="#ffda44"/><g fill="#fff5f5"><path d="m47.839 294.154h31.893v30h-31.893z"/><path d="m111.624 294.154h31.894v30h-31.894z"/><path d="m175.41 294.154h31.893v30h-31.893z"/></g><path d="m286.088 294.154h31.893v30h-31.893z" fill="#e1ebf0"/><path d="m349.873 294.154h31.894v30h-31.894z" fill="#e1ebf0"/><path d="m430.552 294.154h31.893v30h-31.893z" fill="#e1ebf0"/><path d="m464.161 357.94h-208.161l-10.008 15 10.008 15h208.161z" fill="#04303e"/><path d="m47.839 357.94h208.161v30h-208.161z" fill="#09607d"/></g></svg>