<svg id="Capa_1" enable-background="new 0 0 512 512" height="512" viewBox="0 0 512 512" width="512" xmlns="http://www.w3.org/2000/svg"><g><path d="m286.024 189.852h-30.024l-20.016 267.116 50.04-20.016z" fill="#ffda44"/><path d="m225.976 189.852v247.1l30.024 20.016v-267.116z" fill="#fff68e"/><path d="m441.54 222.952h-30v-138.927l-64.481 15.082-6.832-29.212 101.313-23.696z" fill="#b4d2d7"/><path d="m100.46 296.84h-30v-163.848l94.48-22.099 6.832 29.212-71.312 16.68z" fill="#e1ebf0"/><path d="m0 281.84h170.92v90.048h-170.92z" fill="#fff68e"/><path d="m30 311.84h110.92v30.048h-110.92z" fill="#ffda44"/><path d="m341.08 207.952h170.92v90.048h-170.92z" fill="#ffda44"/><path d="m371.08 237.952h110.92v30.048h-110.92z" fill="#ffb655"/><path d="m360.042 104.042c0-57.461-46.581-104.042-104.042-104.042l-20.016 104.042 20.016 104.043c57.461 0 104.042-46.582 104.042-104.043z" fill="#ffb655"/><path d="m151.958 104.042c0 57.461 46.581 104.042 104.042 104.042v-208.084c-57.461 0-104.042 46.581-104.042 104.042z" fill="#ffda44"/><path d="m330.042 104.042c0-40.827-33.215-74.042-74.042-74.042l-20.016 74.042 20.016 74.043c40.827 0 74.042-33.215 74.042-74.043z" fill="#ffda44"/><path d="m181.958 104.042c0 40.827 33.215 74.042 74.042 74.042v-148.084c-40.827 0-74.042 33.215-74.042 74.042z" fill="#fff68e"/><path d="m376.096 436.952h-120.096l-20.016 60.048h140.112z" fill="#ffb655"/><path d="m135.904 436.952h120.096v60.048h-120.096z" fill="#ffda44"/><path d="m406.12 482h-150.12l-10.008 15 10.008 15h150.12z" fill="#ffda44"/><path d="m105.88 482h150.12v30h-150.12z" fill="#fff68e"/></g></svg>