<svg id="Capa_1" enable-background="new 0 0 512 512" height="512" viewBox="0 0 512 512" width="512" xmlns="http://www.w3.org/2000/svg"><g><path d="m473.223 45.036h-217.223l-20.016 143.621 20.016 143.621h217.223z" fill="#00aa95"/><path d="m38.777 45.036h217.223v287.242h-217.223z" fill="#00cc76"/><path d="m443.223 112.143h-.813c-20.012 0-36.293-16.281-36.293-36.293v-.813h37.106z" fill="#00cc76"/><path d="m105.884 75.036v.813c0 20.012-16.281 36.293-36.293 36.293h-.813v-37.106z" fill="#a5e887"/><path d="m442.409 142.143c-36.554 0-66.293-29.739-66.293-66.293v-.813h-120.116l-20.016 113.621 20.016 113.62h120.116v-.813c0-36.554 29.739-66.293 66.293-66.293h.813v-93.029z" fill="#00cc76"/><path d="m135.884 75.036v.813c0 36.554-29.739 66.293-66.293 66.293h-.813v93.029h.813c36.554 0 66.293 29.739 66.293 66.293v.813h120.116v-227.241z" fill="#a5e887"/><path d="m256 112.089-10.008 15.597 10.008 14.403c25.677 0 46.567 20.89 46.567 46.568s-20.89 46.568-46.567 46.568l-10.008 15.313 10.008 14.687c42.22 0 76.567-34.349 76.567-76.568s-34.347-76.568-76.567-76.568z" fill="#e1ebf0"/><path d="m209.432 188.657c0-25.678 20.891-46.568 46.568-46.568v-30c-42.22 0-76.568 34.348-76.568 76.568s34.348 76.568 76.568 76.568v-30c-25.678 0-46.568-20.891-46.568-46.568z" fill="#fff5f5"/><path d="m512 180.168h-256l-20.016 80.064 276.016-20.016z" fill="#e7c994"/><path d="m0 180.168v60.048l256 20.016v-80.064z" fill="#f3e5cb"/><path d="m256 240.216-20.016 50.016 276.016-20.016v-30z" fill="#dbad5c"/><path d="m256 240.216h-256v30l256 20.016z" fill="#e7c994"/><path d="m256 466.964h256v-196.748h-256l-20.016 98.374z" fill="#e7c994"/><path d="m0 270.216h256v196.748h-256z" fill="#f3e5cb"/></g></svg>