<svg id="Capa_1" enable-background="new 0 0 512 512" height="512" viewBox="0 0 512 512" width="512" xmlns="http://www.w3.org/2000/svg"><g><path d="m256 0-20.016 227.003 20.016 284.997 68.533-68.533c91.872-29.061 158.47-114.98 158.47-216.463 0-125.371-101.633-227.004-227.003-227.004z" fill="#4895ff"/><path d="m28.997 227.003c0 101.483 66.598 187.403 158.47 216.463l68.533 68.534v-512c-125.37 0-227.003 101.633-227.003 227.003z" fill="#5ecef4"/><path d="m256 49.558-20.016 177.445 20.016 177.445c97.844 0 177.445-79.602 177.445-177.445s-79.601-177.445-177.445-177.445z" fill="#e1ebf0"/><path d="m78.555 227.003c0 97.844 79.602 177.445 177.445 177.445v-354.89c-97.844 0-177.445 79.601-177.445 177.445z" fill="#fff5f5"/><path d="m256 79.558-20.016 147.445 20.016 147.445c81.302 0 147.445-66.144 147.445-147.445s-66.143-147.445-147.445-147.445z" fill="#00cc76"/><path d="m108.555 227.003c0 81.302 66.144 147.445 147.445 147.445v-294.89c-81.302 0-147.445 66.143-147.445 147.445z" fill="#a5e887"/><path d="m316.024 181.956v-30h-45.024v-30h-15l-10.008 43.714 10.008 16.286z" fill="#e1ebf0"/><path d="m286.024 242.003v30.048h-30.024l-10.008 15.619 10.008 44.381h15v-30h45.024v-90.048h-60.024l-10.008 15 10.008 15z" fill="#e1ebf0"/><g fill="#fff5f5"><path d="m195.976 272.051v30h45.024v30h15v-60z"/><path d="m225.976 181.956h30.024v-60h-15v30h-45.024v90.047h60.024v-30h-30.024z"/></g></g></svg>