<svg id="Capa_1" enable-background="new 0 0 512 512" height="512" viewBox="0 0 512 512" width="512" xmlns="http://www.w3.org/2000/svg"><g><path d="m481.976 60.916h-225.976l-20.016 350.136 245.992-20.016z" fill="#e1ebf0"/><path d="m30.024 60.916v330.12l225.976 20.016v-350.136z" fill="#fff5f5"/><path d="m451.976 90.916h-195.976l-20.016 120.036 20.016 150.06h195.976z" fill="#04303e"/><path d="m60.024 90.916h195.976v270.097h-195.976z" fill="#09607d"/><g fill="#a5e887"><path d="m90.048 150.916h75.904v30h-75.904z"/><path d="m90.048 271.011h75.904v30h-75.904z"/><path d="m90.048 210.964h75.904v30h-75.904z"/></g><path d="m346.048 150.916h75.904v30h-75.904z" fill="#00cc76"/><path d="m346.048 271.011h75.904v30h-75.904z" fill="#00cc76"/><path d="m346.048 210.964h75.904v30h-75.904z" fill="#00cc76"/><path d="m316.024 180.916v-30h-45.024v-30h-15l-10.008 43.715 10.008 16.285z" fill="#e1ebf0"/><path d="m286.024 240.964v30.047h-30.024l-10.008 15.619 10.008 44.381h15v-30h45.024v-90.047h-60.024l-10.008 15 10.008 15z" fill="#e1ebf0"/><path d="m195.976 271.011v30h45.024v30h15v-60z" fill="#fff5f5"/><path d="m225.976 180.916h30.024v-60h-15v30h-45.024v90.048h60.024v-30h-30.024z" fill="#fff5f5"/><path d="m512 391.036h-225.976l-50.04 20.016 20.016 40.032h256z" fill="#b4d2d7"/><path d="m0 391.036v60.048h256v-40.032l-30.024-20.016z" fill="#e1ebf0"/><path d="m256 421.06h30.024v-30.024h-30.024l-10.008 15.012z" fill="#87a0af"/><path d="m225.976 391.036h30.024v30.024h-30.024z" fill="#b4d2d7"/></g></svg>