<svg id="Capa_1" enable-background="new 0 0 512 512" height="512" viewBox="0 0 512 512" width="512" xmlns="http://www.w3.org/2000/svg"><g><path d="m512 0h-256l-20.016 241.784 20.016 270.216h256z" fill="#b4d2d7"/><path d="m0 0h256v512h-256z" fill="#e1ebf0"/><path d="m482 30h-226l-20.016 211.784 20.016 240.216h226z" fill="#e1ebf0"/><path d="m30 30v452h226v-120.12l-20.016-45.024 20.016-45.024v-241.832z" fill="#fff5f5"/><path d="m451.952 60.048h-195.952l-20.016 90.868 20.016 90.868h195.952z" fill="#00aa95"/><path d="m60.048 60.048h195.952v181.736h-195.952z" fill="#00cc76"/><path d="m421.952 90.048h-165.952l-20.016 60.868 20.016 60.868h165.952z" fill="#00cc76"/><path d="m90.048 90.048h165.952v121.736h-165.952z" fill="#a5e887"/><g fill="#4895ff"><path d="m301.88 271.832h30.024v30h-30.024z"/><path d="m361.928 271.832h30.024v30h-30.024z"/><path d="m421.976 271.832h30.024v30h-30.024z"/><path d="m301.88 331.88h30.024v30h-30.024z"/><path d="m361.928 331.88h30.024v30h-30.024z"/><path d="m421.976 331.88h30.024v30h-30.024z"/><path d="m301.88 391.928h30.024v30h-30.024z"/><path d="m361.928 391.928h30.024v30h-30.024z"/><path d="m421.976 391.928h30.024v30h-30.024z"/></g><path d="m391.916 135.916h-135.916l-10.008 15 10.008 15h135.916z" fill="#00aa95"/><path d="m120.084 135.916h135.916v30h-135.916z" fill="#00cc76"/><path d="m60.048 331.856v30.024h195.952v-30.024l-97.976-20.016z" fill="#e1ebf0"/><path d="m90.072 311.84h135.904v140.112h-135.904z" fill="#00cc76"/><path d="m120.084 311.864h75.88v110.088h-75.88z" fill="#a5e887"/><path d="m60.048 271.832h195.952v60.024h-195.952z" fill="#b4d2d7"/></g></svg>