<svg id="Capa_1" enable-background="new 0 0 512 512" height="512" viewBox="0 0 512 512" width="512" xmlns="http://www.w3.org/2000/svg"><g><path d="m331.048 0h-75.048l-20.016 90.048h95.064z" fill="#ff7c48"/><path d="m180.952 0h75.048v90.048h-75.048z" fill="#ffb655"/><path d="m301.048 30h-45.048l-20.016 60.048h65.064z" fill="#ffb655"/><path d="m210.952 30h45.048v60.048h-45.048z" fill="#ffda44"/><path d="m401.104 60.048h-145.104l-20.016 195.952 20.016 195.952h145.104z" fill="#b4d2d7"/><path d="m110.896 60.048h145.104v391.904h-145.104z" fill="#e1ebf0"/><path d="m401.104 375.288-165.12-20.016 20.016 96.68h145.104z" fill="#b4d2d7"/><path d="m331.048 375.288-80.064-20.016 20.016 156.728h60.048z" fill="#4895ff"/><path d="m220.984 355.272 20.016 156.728h30v-136.712z" fill="#04303e"/><path d="m180.952 375.288v136.712h60.048v-156.728z" fill="#5ecef4"/><path d="m371.104 90.048h-115.104l-20.016 142.62 20.016 142.62h115.104z" fill="#e1ebf0"/><path d="m140.896 90.048h115.104v285.24h-115.104z" fill="#fff5f5"/><path d="m180.94 180.144h30.023v30h-30.023z" fill="#5ecef4"/><path d="m240.988 180.144h30.023v30h-30.023z" fill="#5ecef4"/><path d="m301.036 180.144h30.023v30h-30.023z" fill="#4895ff"/><g fill="#5ecef4"><path d="m180.94 240.192h30.023v30h-30.023z"/><path d="m240.988 240.192h30.023v30h-30.023z"/><path d="m180.94 300.24h30.023v30h-30.023z"/><path d="m240.988 300.24h30.023v30h-30.023z"/></g><path d="m301.048 240.192h30v90.06h-30z" fill="#ff415b"/><path d="m331.06 120.096h-75.06l-10.008 15 10.008 15h75.06z" fill="#87a0af"/><path d="m180.94 120.096h75.06v30h-75.06z" fill="#b4d2d7"/></g></svg>