<svg id="Capa_1" enable-background="new 0 0 512 512" height="512" viewBox="0 0 512 512" width="512" xmlns="http://www.w3.org/2000/svg"><g><path d="m241 211.853h30v120.527h-30z" fill="#00aa95"/><path d="m431.785 0h-175.785l-20.016 113.426 20.016 113.427h175.785z" fill="#00aa95"/><path d="m80.215 0h175.785v226.853h-175.785z" fill="#00cc76"/><path d="m401.785 134.947v-43.04c-34.041-.221-61.685-27.865-61.906-61.907h-83.879l-20.016 83.427 20.016 83.426h83.879c.221-34.042 27.865-61.685 61.906-61.906z" fill="#00cc76"/><path d="m172.121 30c-.221 34.042-27.865 61.686-61.906 61.907v43.04c34.041.221 61.685 27.865 61.906 61.906h83.879v-166.853z" fill="#a5e887"/><path d="m401.785 61.907c-17.499-.219-31.687-14.407-31.906-31.907h31.906z" fill="#00cc76"/><path d="m142.121 30c-.219 17.5-14.407 31.688-31.906 31.907v-31.907z" fill="#a5e887"/><path d="m110.215 164.947c17.498.219 31.686 14.406 31.906 31.906h-31.906z" fill="#a5e887"/><path d="m369.879 196.853c.22-17.499 14.408-31.687 31.906-31.906v31.906z" fill="#00cc76"/><path d="m351.096 298.599v-32.329h-36.486c-25.444 0-47.562 14.458-58.61 35.581l-20.016 82.873 49.002-20.016c36.453 0 66.11-29.656 66.11-66.109z" fill="#00cc76"/><path d="m197.39 266.27h-36.486v32.329c0 36.453 29.657 66.109 66.11 66.109l28.986 20.016v-82.873c-11.048-21.124-33.166-35.581-58.61-35.581z" fill="#a5e887"/><path d="m376.563 399.109 8.381-41.901h-128.944l-20.016 61.917z" fill="#c9885b"/><path d="m135.437 399.109 120.563 20.016v-61.917h-128.944z" fill="#dbad5c"/><path d="m376.563 399.109h-120.563l-20.016 56.445 20.016 56.446h97.985z" fill="#e7c994"/><path d="m135.437 399.109 22.578 112.891h97.985v-112.891z" fill="#f3e5cb"/><path d="m307.51 113.427c0-28.402-23.107-51.51-51.51-51.51l-10.008 15.583 10.008 14.417c11.86 0 21.51 9.649 21.51 21.51s-9.649 21.51-21.51 21.51l-10.008 13.563 10.008 16.437c28.403 0 51.51-23.108 51.51-51.51z" fill="#e1ebf0"/><path d="m234.49 113.427c0-11.86 9.649-21.51 21.51-21.51v-30c-28.403 0-51.51 23.107-51.51 51.51s23.107 51.51 51.51 51.51v-30c-11.86 0-21.51-9.65-21.51-21.51z" fill="#fff5f5"/></g></svg>