<svg id="Capa_1" enable-background="new 0 0 512 512" height="512" viewBox="0 0 512 512" width="512" xmlns="http://www.w3.org/2000/svg"><g><path d="m306.028 466.976v-75.048h-70.044l20.016 75.048z" fill="#b4d2d7"/><g fill="#e1ebf0"><path d="m205.972 391.928h50.028v75.048h-50.028z"/><path d="m512 361.57-276.016-20.016 20.016 80.374h256z"/><path d="m436.952 481.976v-30h-180.952l-10.008 15 10.008 15z"/></g><path d="m75.048 451.976h180.952v30h-180.952z" fill="#fff5f5"/><path d="m0 361.57v60.358h256v-80.374z" fill="#fff5f5"/><path d="m512 30.024h-256l-20.016 165.761 20.016 165.785h256z" fill="#04303e"/><path d="m0 30.024h256v331.546h-256z" fill="#09607d"/><path d="m482 60.024h-226l-20.016 135.928 20.016 135.594h226z" fill="#e1ebf0"/><path d="m30 60.024h226v271.522h-226z" fill="#fff5f5"/><path d="m411.92 90.072h-155.92l-20.016 105.713 20.016 106.047h155.92z" fill="#00aa95"/><path d="m100.08 90.072h155.92v211.76h-155.92z" fill="#00cc76"/><path d="m321.894 120.072h-65.894l-20.016 75.713 20.016 76.047h65.894c.454-32.903 27.123-59.572 60.026-60.026v-31.707c-32.903-.455-59.572-27.123-60.026-60.027z" fill="#00cc76"/><path d="m190.106 120.072c-.454 32.903-27.123 59.572-60.026 60.026v31.707c32.903.454 59.572 27.123 60.026 60.026h65.894v-151.76h-65.894z" fill="#a5e887"/><path d="m381.92 150.099c-16.362-.445-29.581-13.665-30.026-30.026h30.026z" fill="#00cc76"/><path d="m160.106 120.072c-.445 16.362-13.665 29.581-30.026 30.026v-30.026z" fill="#a5e887"/><path d="m130.08 241.806c16.362.445 29.581 13.665 30.026 30.026h-30.026z" fill="#a5e887"/><path d="m351.894 271.832c.445-16.362 13.665-29.581 30.026-30.026v30.026z" fill="#00cc76"/><path d="m301.88 195.951c0-25.298-20.582-45.879-45.879-45.879l-10.009 16.928 10.008 13.072c8.756 0 15.879 7.123 15.879 15.879 0 8.757-7.124 15.881-15.879 15.881l-10.008 14.168 10.008 15.832c25.298 0 45.88-20.582 45.88-45.881z" fill="#e1ebf0"/><path d="m240.12 195.951c0-8.756 7.124-15.879 15.88-15.879v-30c-25.298 0-45.88 20.581-45.88 45.879 0 25.299 20.582 45.881 45.88 45.881v-30c-8.756 0-15.88-7.124-15.88-15.881z" fill="#fff5f5"/></g></svg>