<svg id="Capa_1" enable-background="new 0 0 512 512" height="512" viewBox="0 0 512 512" width="512" xmlns="http://www.w3.org/2000/svg"><g><path d="m512 113.398h-256l-20.016 150.096 20.016 135.108h256z" fill="#b4d2d7"/><path d="m0 113.398h256v285.203h-256z" fill="#e1ebf0"/><path d="m482 143.398h-226l-20.016 120.096 20.016 105.108h226z" fill="#e1ebf0"/><path d="m30 143.398h226v225.203h-226z" fill="#fff5f5"/><path d="m95.506 338.488-35.011-13.829 11.02-27.902 23.991 9.475 29.502-11.652 35.008 13.829-11.022 27.903-23.987-9.476z" fill="#4895ff"/><path d="m316 308.554h136v30h-136z" fill="#ff415b"/><path d="m452 173.446h-196l-10.008 15 10.008 15h196z" fill="#04303e"/><path d="m452 263.494v-30h-196l-10.008 15 10.008 15z" fill="#04303e"/><g fill="#09607d"><path d="m135.952 173.446h120.048v30h-120.048z"/><path d="m135.952 233.494h120.048v30h-120.048z"/></g></g></svg>