<svg id="Capa_1" enable-background="new 0 0 512 512" height="512" viewBox="0 0 512 512" width="512" xmlns="http://www.w3.org/2000/svg"><g><path d="m481.976 512v-361.952l-245.992-20.016 20.016 381.968z" fill="#04303e"/><path d="m30.024 512h225.976v-381.968l-225.976 20.016z" fill="#09607d"/><path d="m481.976 120.048-245.992-20.016 20.016 50.016h225.976z" fill="#00aa95"/><path d="m30.024 120.048v30h225.976v-50.016z" fill="#00cc76"/><path d="m421.976 451.952v-271.856h-165.976l-20.016 135.928 20.016 135.928z" fill="#e1ebf0"/><path d="m90.024 180.096h165.976v271.856h-165.976z" fill="#fff5f5"/><path d="m481.976 0h-225.976l-20.016 60.024 20.016 60.024h225.976z" fill="#00cc76"/><path d="m30.024 0h225.976v120.048h-225.976z" fill="#a5e887"/><path d="m346.488 210.096h45.487v50.619h-45.487z" fill="#4895ff"/><path d="m195.513 290.715h45.487v50.618h-45.487z" fill="#5ecef4"/><path d="m120.024 290.715h45.488v50.618h-45.488z" fill="#5ecef4"/><path d="m195.513 371.333h45.487v50.619h-45.487z" fill="#5ecef4"/><g fill="#4895ff"><path d="m271 371.333h45.488v50.619h-45.488z"/><path d="m271 290.715h45.488v50.618h-45.488z"/><path d="m271 210.096h45.488v50.619h-45.488z"/></g><path d="m120.024 210.096h120.976v50.619h-120.976z" fill="#5ecef4"/><path d="m120.024 371.333h45.488v50.619h-45.488z" fill="#5ecef4"/><path d="m346.488 290.715h45.487v131.237h-45.487z" fill="#ff7c48"/><path d="m421.987 45.024h-165.987l-10.008 15 10.008 15h165.987z" fill="#00aa95"/><path d="m90.013 45.024h165.987v30h-165.987z" fill="#00cc76"/></g></svg>