<svg id="Capa_1" enable-background="new 0 0 512 512" height="512" viewBox="0 0 512 512" width="512" xmlns="http://www.w3.org/2000/svg"><g><path d="m75.048 345.521h-22.133c-29.178 0-52.915-23.737-52.915-52.915v-30.024h30v30.024c0 12.636 10.279 22.915 22.915 22.915h22.133z" fill="#ffcdbe"/><path d="m460.934 285.481v-118.509h-24.27c-22.962 0-42.355 15.249-48.626 36.171-19.466-9.649-41.385-15.093-64.585-15.093h-57.381l-20.016 151.197 20.016 140.142h30.74v32.133h64.317v-37.082c46.584-12.444 83.98-47.38 99.805-92.483h51.066v-96.476z" fill="#ffcdbe"/><path d="m205.717 188.05c-80.451 0-145.669 65.218-145.669 145.669 0 67.47 45.873 124.217 108.129 140.776v37.026h64.317v-32.133h33.577v-291.338z" fill="#ffeee5"/><path d="m400.885 269.492h30.024v30h-30.024z" fill="#ff7c48"/><path d="m370.114 104.521c0-57.461-46.581-104.042-104.042-104.042l-20.016 104.042 20.016 104.042c57.461.001 104.042-46.581 104.042-104.042z" fill="#ffb655"/><path d="m162.029 104.521c0 57.461 46.581 104.042 104.042 104.042v-208.084c-57.461 0-104.042 46.581-104.042 104.042z" fill="#ffda44"/><path d="m340.114 104.521c0-40.827-33.215-74.042-74.042-74.042l-20.016 74.042 20.016 74.042c40.827.001 74.042-33.215 74.042-74.042z" fill="#ffda44"/><path d="m192.029 104.521c0 40.827 33.215 74.042 74.042 74.042v-148.084c-40.827 0-74.042 33.215-74.042 74.042z" fill="#fff68e"/><path d="m311.083 269.569h-45.011l-10.008-15 10.008-15h45.011z" fill="#faa68e"/><path d="m221.06 239.569h45.012v30h-45.012z" fill="#ffcdbe"/></g></svg>