<svg id="Capa_1" enable-background="new 0 0 512 512" height="512" viewBox="0 0 512 512" width="512" xmlns="http://www.w3.org/2000/svg"><g><g fill="#ffda44"><path d="m393.636 200.16h-137.636l-20.016 155.92 20.016 155.92h215.149z"/><path d="m241 0h30v111.678h-30z"/><path d="m129.563 22.166h30v111.678h-30z" transform="matrix(.924 -.383 .383 .924 -18.847 61.26)"/><path d="m35.092 85.29h30v111.678h-30z" transform="matrix(.707 -.707 .707 .707 -85.121 76.755)"/><path d="m406.07 126.129h111.678v30h-111.678z" transform="matrix(.707 -.707 .707 .707 35.497 367.955)"/><path d="m311.598 63.005h111.678v30h-111.678z" transform="matrix(.383 -.924 .924 .383 154.759 387.623)"/></g><path d="m118.364 200.16-77.513 311.84h215.149v-311.84z" fill="#fff68e"/><path d="m362.362 240.16h-106.362l-20.016 115.92 20.016 115.92h163.989z" fill="#ffb655"/><path d="m149.638 240.16-57.627 231.84h163.989v-231.84z" fill="#ffda44"/></g></svg>