<svg id="Capa_1" enable-background="new 0 0 512 512" height="512" viewBox="0 0 512 512" width="512" xmlns="http://www.w3.org/2000/svg"><g><g fill="#ffda44"><path d="m241 0h30v111.678h-30z"/><path d="m129.563 22.166h30v111.678h-30z" transform="matrix(.924 -.383 .383 .924 -18.847 61.26)"/><path d="m35.092 85.29h30v111.678h-30z" transform="matrix(.707 -.707 .707 .707 -85.121 76.755)"/><path d="m406.07 126.129h111.678v30h-111.678z" transform="matrix(.707 -.707 .707 .707 35.497 367.955)"/><path d="m311.598 63.005h111.678v30h-111.678z" transform="matrix(.383 -.924 .924 .383 154.759 387.623)"/></g><path d="m470.72 389.272h-44.054l-20.016 61.364 20.016 61.364h85.333z" fill="#ffb655"/><path d="m382.612 389.272-41.279 122.728h85.333v-122.728z" fill="#ffda44"/><path d="m300.054 389.272h-44.054l-20.016 61.364 20.016 61.364h85.333z" fill="#ffb655"/><path d="m211.946 389.272-41.279 122.728h85.333v-122.728z" fill="#ffda44"/><path d="m300.054 143.816h-44.054l-20.016 61.364 20.016 61.364h85.333z" fill="#ffb655"/><path d="m211.946 143.816-41.279 122.728h85.333v-122.728z" fill="#ffda44"/><path d="m385.387 266.544h-44.054l-20.016 61.364 20.016 61.364h85.333z" fill="#ffb655"/><path d="m297.279 266.544-41.279 122.728h85.333v-122.728z" fill="#ffda44"/><path d="m214.721 266.544h-44.054l-20.016 61.364 20.016 61.364h85.333z" fill="#ffb655"/><path d="m126.613 266.544-41.279 122.728h85.333v-122.728z" fill="#ffda44"/><path d="m129.388 389.272h-44.054l-20.016 61.364 20.016 61.364h85.333z" fill="#ffb655"/><path d="m41.28 389.272-41.279 122.728h85.333v-122.728z" fill="#ffda44"/></g></svg>