<svg id="Capa_1" enable-background="new 0 0 512.048 512.048" height="512" viewBox="0 0 512.048 512.048" width="512" xmlns="http://www.w3.org/2000/svg"><g><g fill="#ffda44"><path d="m0 189.123h50.04v30h-50.04z"/><path d="m462.008 189.123h50.04v30h-50.04z"/><path d="m17.584 277.524h50.04v30h-50.04z" transform="matrix(.924 -.383 .383 .924 -108.699 38.57)"/><path d="m444.424 100.721h50.04v30h-50.04z" transform="matrix(.924 -.383 .383 .924 -8.551 188.454)"/><path d="m17.584 277.524h50.04v30h-50.04z" transform="matrix(.924 -.383 .383 .924 -108.699 38.57)"/><path d="m444.424 100.721h50.04v30h-50.04z" transform="matrix(.924 -.383 .383 .924 -8.551 188.454)"/><path d="m27.604 90.701h30v50.04h-30z" transform="matrix(.383 -.924 .924 .383 -80.612 110.798)"/><path d="m454.444 267.504h30v50.04h-30z" transform="matrix(.383 -.924 .924 .383 19.54 614.292)"/></g><path d="m80.333 204.135 175.667 215.625-68.374-235.641z" fill="#beebfa"/><path d="m431.667 204.135-107.293-20.016-68.374 235.641z" fill="#5ecef4"/><path d="m235.984 184.119 20.016 235.641 88.39-215.625z" fill="#4895ff"/><path d="m431.667 204.135-44.869-103.453-43.643 57.637 1.235 45.816z" fill="#4895ff"/><path d="m256 100.682 24.179 51.727 64.211 51.726 42.408-103.453z" fill="#beebfa"/><path d="m256 204.135h88.39l-88.39-103.453-20.016 57.31z" fill="#5ecef4"/><path d="m256 419.76v-235.641l-88.39 20.016z" fill="#5ecef4"/><path d="m125.202 100.682-44.869 103.453h87.277l1.029-46.318z" fill="#4895ff"/><path d="m256 100.682h-130.798l42.408 103.453 61.141-48.133z" fill="#5ecef4"/><path d="m256 100.682-88.39 103.453h88.39z" fill="#beebfa"/></g></svg>