<svg id="Capa_1" enable-background="new 0 0 512 512" height="512" viewBox="0 0 512 512" width="512" xmlns="http://www.w3.org/2000/svg"><g><path d="m512 30.024h-256l-20.016 225.976 20.016 225.976h256z" fill="#b4d2d7"/><path d="m0 30.024h256v451.951h-256z" fill="#e1ebf0"/><path d="m482 60.024h-226l-20.016 195.976 20.016 195.976h226z" fill="#e1ebf0"/><path d="m30 60.024h226v391.951h-226z" fill="#fff5f5"/><path d="m452 90.024h-196l-20.016 165.976 20.016 165.976h196z" fill="#b4d2d7"/><path d="m60 90.024h196v331.951h-196z" fill="#e1ebf0"/><path d="m256 150.976h150v210.049h-150z" fill="#87a0af"/><g fill="#04303e"><path d="m346 180.976h30v30h-30z"/><path d="m346 240.976h30v30.049h-30z"/><path d="m286 240.976h30v30.049h-30z"/><path d="m286 180.976h30v30h-30z"/><path d="m286 301.024h30v30h-30z"/><path d="m346 301.024h30v30h-30z"/></g><path d="m120.048 165.976h30v180.049h-30z" fill="#09607d"/></g></svg>