<svg id="Capa_1" enable-background="new 0 0 512 512" height="512" viewBox="0 0 512 512" width="512" xmlns="http://www.w3.org/2000/svg"><g><path d="m256 0-20.016 256 20.016 256c141.385 0 256-114.615 256-256s-114.615-256-256-256z" fill="#b4d2d7"/><path d="m0 256c0 141.385 114.615 256 256 256v-512c-141.385 0-256 114.615-256 256z" fill="#e1ebf0"/><path d="m256 40.032-20.016 215.968 20.016 215.968c119.276 0 215.968-96.692 215.968-215.968s-96.692-215.968-215.968-215.968z" fill="#e1ebf0"/><path d="m40.032 256c0 119.276 96.692 215.968 215.968 215.968v-431.936c-119.276 0-215.968 96.692-215.968 215.968z" fill="#fff5f5"/><path d="m256 80.064-20.016 175.936 20.016 175.936c97.011 0 175.936-78.925 175.936-175.936s-78.925-175.936-175.936-175.936z" fill="#87a0af"/><path d="m80.064 256c0 97.011 78.925 175.936 175.936 175.936v-100.888l-10.008-75.048 10.008-75.048v-100.888c-97.011 0-175.936 78.925-175.936 175.936z" fill="#b4d2d7"/><path d="m125.48 241h30v30h-30z" fill="#fff5f5"/><g fill="#e1ebf0"><path d="m356.52 241h30v30h-30z"/><path d="m316.036 331.048v-30h-70.044l10.008 30z"/><path d="m245.992 210.952h70.044v-30h-60.036z"/><path d="m301 241h-55.008l10.008 30h45z"/></g><path d="m256 180.952h-30v60.048h-30v30h30v60.048h30z" fill="#fff5f5"/></g></svg>