<svg id="Capa_1" enable-background="new 0 0 512 512" height="512" viewBox="0 0 512 512" width="512" xmlns="http://www.w3.org/2000/svg"><g><path d="m512 281.759h-256l-20.016 178.326 276.016-20.016z" fill="#9b5e34"/><path d="m0 281.759v158.31l256 20.016v-178.326z" fill="#c9885b"/><path d="m370.199 115.427 28.461-9.486-24.681-74.042h-117.979l-10.008 16.205 10.008 13.795h96.356z" fill="#724435"/><path d="m138.021 31.899-24.681 74.042 28.461 9.486 17.843-53.528h96.356v-30z" fill="#9b5e34"/><path d="m256 95.672-20.016 178.071 20.016 46.895h189.247c28.613 0 53.551-15.667 66.753-38.879v-186.087z" fill="#dbad5c"/><path d="m0 95.672v186.086c13.202 23.212 38.14 38.879 66.753 38.879h189.247v-224.965z" fill="#e7c994"/><path d="m302.893 273.745h-46.893l-20.016 46.893 20.016 46.892h46.893z" fill="#e1ebf0"/><path d="m209.107 273.745h46.893v93.785h-46.893z" fill="#fff5f5"/><path d="m512 440.069h-256l-20.016 20.016 20.016 20.016h256z" fill="#724435"/><path d="m0 440.069h256v40.032h-256z" fill="#9b5e34"/><path d="m239.107 303.745h33.785v33.785h-33.785z" fill="#b4d2d7"/></g></svg>