<svg id="Capa_1" enable-background="new 0 0 512 512" height="512" viewBox="0 0 512 512" width="512" xmlns="http://www.w3.org/2000/svg"><g><path d="m256 120-20.016 136 20.016 136c74.991 0 136-61.01 136-136s-61.009-136-136-136z" fill="#ffda44"/><path d="m120 256c0 74.99 61.009 136 136 136v-272c-74.991 0-136 61.01-136 136z" fill="#fff68e"/><path d="m256 150-20.016 106 20.016 106c58.449 0 106-47.552 106-106s-47.551-106-106-106z" fill="#ffb655"/><path d="m150 256c0 58.448 47.551 106 106 106v-212c-58.449 0-106 47.552-106 106z" fill="#ffda44"/><path d="m481.498 241c-3.562-54.721-26.562-105.676-65.692-144.807-39.13-39.13-90.086-62.129-144.806-65.691v-30.502h-15l-10.008 45.024 10.008 44.976h15v-29.431c96.142 7.31 173.121 84.289 180.431 180.431h-29.431v30h29.431c-7.31 96.143-84.289 173.121-180.431 180.431v-29.431h-15l-10.008 44.984 10.008 45.016h15v-30.502c54.72-3.562 105.676-26.561 144.806-65.691 39.13-39.131 62.13-90.086 65.692-144.807h30.502v-30z" fill="#04303e"/><path d="m241 422v29.431c-96.142-7.31-173.121-84.288-180.431-180.431h29.431v-30h-29.431c7.31-96.143 84.289-173.121 180.431-180.431v29.431h15v-90h-15v30.502c-54.72 3.562-105.676 26.561-144.806 65.691-39.13 39.131-62.13 90.086-65.692 144.807h-30.502v30h30.502c3.562 54.721 26.562 105.676 65.692 144.807 39.13 39.13 90.086 62.129 144.806 65.691v30.502h15v-90z" fill="#09607d"/><path d="m332 256c0-41.906-34.093-76-76-76l-20.016 76 20.016 76c41.907 0 76-34.094 76-76z" fill="#e1ebf0"/><path d="m180 256c0 41.906 34.093 76 76 76v-152c-41.907 0-76 34.094-76 76z" fill="#fff5f5"/></g></svg>