<svg id="Capa_1" enable-background="new 0 0 512 512" height="512" viewBox="0 0 512 512" width="512" xmlns="http://www.w3.org/2000/svg"><g><path d="m306.028 466.976v-75.048h-70.044l20.016 75.048z" fill="#b4d2d7"/><g fill="#e1ebf0"><path d="m205.972 391.928h50.028v75.048h-50.028z"/><path d="m512 361.57-276.016-20.016 20.016 80.374h256z"/><path d="m436.952 481.976v-30h-180.952l-10.008 15 10.008 15z"/></g><path d="m75.048 451.976h180.952v30h-180.952z" fill="#fff5f5"/><path d="m0 361.57v60.358h256v-80.374z" fill="#fff5f5"/><path d="m512 30.024h-256l-20.016 165.761 20.016 165.785h256z" fill="#04303e"/><path d="m0 30.024h256v331.546h-256z" fill="#09607d"/><path d="m482 60.024h-226l-20.016 135.928 20.016 135.594h226z" fill="#e1ebf0"/><path d="m30 60.024h226v271.522h-226z" fill="#fff5f5"/><path d="m120.024 90.904h-30v30h-30.024v90.048h60.048v30.048h-60.048v30h30.024v30h30v-30h30.024v-90.048h-60.048v-30.048h60.048v-30h-30.024z" fill="#00cc76"/><path d="m266.008 286 20.016-120.048v-30.024h60.048v150.072z" fill="#ff7c48"/><path d="m286.024 165.952h-30.024l-20.016 120.048h50.04z" fill="#ff415b"/><path d="m225.976 165.952h30.024v120.048h-30.024z" fill="#ff7c48"/><path d="m346.072 135.928h-30.024l-20.016 150.072h50.04z" fill="#ff415b"/><path d="m286.024 135.928h30.024v150.072h-30.024z" fill="#ff7c48"/><path d="m406.12 105.904h-30.024l-20.016 180.096h50.04z" fill="#ff415b"/><path d="m346.072 105.904h30.024v180.096h-30.024z" fill="#ff7c48"/><path d="m436.144 271h-180.144l-10.008 15 10.008 15h180.144z" fill="#b4d2d7"/><path d="m195.952 271h60.048v30h-60.048z" fill="#e1ebf0"/></g></svg>