<svg id="Capa_1" enable-background="new 0 0 512 512" height="512" viewBox="0 0 512 512" width="512" xmlns="http://www.w3.org/2000/svg"><g><path d="m297.977 101.989v39.896h30v-39.896c0-39.688-32.288-71.977-71.977-71.977l-10.008 14.333 10.008 15.667c23.146 0 41.977 18.831 41.977 41.977z" fill="#b4d2d7"/><path d="m184.023 101.989v39.896h30v-39.896c0-23.146 18.831-41.977 41.977-41.977v-30c-39.688 0-71.977 32.288-71.977 71.977z" fill="#e1ebf0"/><path d="m512 151.892h-256l-20.016 165.048 20.016 165.048h256z" fill="#00aa95"/><path d="m0 151.892h256v330.096h-256z" fill="#00cc76"/><path d="m469.063 271.964c-42.533 0-77.136-34.603-77.136-77.136v-12.937h-135.927l-20.016 135.049 20.016 135.048h135.928v-12.937c0-42.532 34.603-77.135 77.136-77.135h12.936v-89.952z" fill="#00cc76"/><path d="m120.072 181.892v12.937c0 42.533-34.603 77.136-77.136 77.136h-12.936v89.952h12.937c42.533 0 77.136 34.603 77.136 77.135v12.937h135.927v-270.097z" fill="#a5e887"/><path d="m256 211.94-10.008 14.572 10.008 15.428c41.355 0 75 33.645 75 75s-33.645 75-75 75l-10.008 14.572 10.008 15.428c57.897 0 105-47.103 105-105s-47.103-105-105-105z" fill="#e1ebf0"/><path d="m181 316.94c0-41.355 33.645-75 75-75v-30c-57.897 0-105 47.103-105 105s47.103 105 105 105v-30c-41.355 0-75-33.645-75-75z" fill="#fff5f5"/><path d="m482 241.964h-12.937c-25.991 0-47.136-21.145-47.136-47.136v-12.937h60.073z" fill="#00cc76"/><path d="m90.072 181.892v12.937c0 25.991-21.145 47.136-47.136 47.136h-12.936v-60.072h60.072z" fill="#a5e887"/><path d="m30 391.917h12.937c25.991 0 47.136 21.145 47.136 47.135v12.937h-60.073z" fill="#a5e887"/><path d="m421.928 451.988v-12.937c0-25.99 21.145-47.135 47.136-47.135h12.936v60.071h-60.072z" fill="#00cc76"/><path d="m90.928 301.94h30v30h-30z" fill="#fff5f5"/><path d="m391.072 301.94h30v30h-30z" fill="#e1ebf0"/><path d="m357.977 121.869h-101.977l-20.016 85.02 20.016 85.02h101.977z" fill="#ffda44"/><path d="m154.023 121.869h101.977v170.04h-101.977z" fill="#fff68e"/><path d="m327.977 151.869h-71.977l-20.016 55.02 20.016 55.02h71.977z" fill="#ffb655"/><path d="m184.023 151.869h71.977v110.04h-71.977z" fill="#ffda44"/></g></svg>