<svg id="Capa_1" enable-background="new 0 0 512 512" height="512" viewBox="0 0 512 512" width="512" xmlns="http://www.w3.org/2000/svg"><g><path d="m310.996 68.504c0-16.569-13.431-30-30-30-10.435 0-19.621 5.33-24.996 13.413l-20.016 46.587h75.012z" fill="#87a0af"/><path d="m231.004 38.504c-16.569 0-30 13.431-30 30v30h54.996v-46.587c-5.375-8.083-14.561-13.413-24.996-13.413z" fill="#b4d2d7"/><path d="m503.999 180.629-28.13-92.133h-219.869l-20.016 114h211.958z" fill="#b4d2d7"/><path d="m36.131 88.496-28.13 92.133 56.057 21.867h191.942v-114z" fill="#e1ebf0"/><path d="m462.828 148.52-9.167-30.024h-197.661l-20.016 50.04z" fill="#724435"/><path d="m256 118.496h-197.661l-9.168 30.024 206.829 20.016z" fill="#9b5e34"/><path d="m462.828 148.52h-206.828l-20.016 148.401 20.016 176.575h112.973c23.289 0 45.438-5.374 65.834-15.972 19.15-9.951 36.109-24.446 49.042-41.917 12.933-17.472 21.844-37.924 25.769-59.146 4.181-22.602 2.852-45.355-3.949-67.629z" fill="#c9885b"/><path d="m49.171 148.52-42.841 140.311c-6.801 22.274-8.13 45.028-3.949 67.629 3.925 21.222 12.836 41.675 25.769 59.146s29.892 31.966 49.043 41.917c20.396 10.598 42.546 15.972 65.834 15.972h112.973v-324.975z" fill="#dbad5c"/></g></svg>