<svg id="Capa_1" enable-background="new 0 0 512 512" height="512" viewBox="0 0 512 512" width="512" xmlns="http://www.w3.org/2000/svg"><g><path d="m241 0h30v45.024h-30z" fill="#9b5e34"/><path d="m267.035 334.96-21.043 10.16 10.008 166.88h15v-128.445l110.739 120.266 22.069-20.32z" fill="#724435"/><path d="m244.965 334.96-136.773 148.541 22.069 20.32 110.739-120.266v128.445h15v-166.88z" fill="#9b5e34"/><path d="m481.976 30.024h-225.976l-20.016 315.096h245.992z" fill="#e1ebf0"/><path d="m30.024 30.024h225.976v315.096h-225.976z" fill="#fff5f5"/><path d="m195.084 135.012v-30h-30.024v-30h-30v30h-30.024v90.048h60.048v30.048h-60.048v30h30.024v30h30v-30h30.024v-90.048h-60.048v-30.048z" fill="#00cc76"/><path d="m368.988 97.096-20.016 102.98 102.98-20.016c0-45.82-37.144-82.964-82.964-82.964z" fill="#ffb655"/><path d="m348.972 180.06 20.016 82.964c45.82 0 82.964-37.144 82.964-82.964z" fill="#4895ff"/><path d="m286.024 180.06c0 45.82 37.144 82.964 82.964 82.964v-165.928c-45.82 0-82.964 37.144-82.964 82.964z" fill="#ffda44"/><path d="m512 330.12h-256l-10.008 15 10.008 15h256z" fill="#9b5e34"/><path d="m0 330.12h256v30h-256z" fill="#c9885b"/></g></svg>