<svg id="Capa_1" enable-background="new 0 0 512 512" height="512" viewBox="0 0 512 512" width="512" xmlns="http://www.w3.org/2000/svg"><g><path d="m481.976 436.952h-245.992l20.016 75.048h225.976z" fill="#b4d2d7"/><path d="m30.024 436.952h225.976v75.048h-225.976z" fill="#e1ebf0"/><path d="m512 0h-256l-20.016 225.976 20.016 225.976h256z" fill="#e1ebf0"/><path d="m0 0h256v451.952h-256z" fill="#fff5f5"/><path d="m482 30h-226l-20.016 195.976 20.016 195.976h226z" fill="#b4d2d7"/><path d="m30 30h226v391.952h-226z" fill="#e1ebf0"/><path d="m421.072 120.952h-165.072l-20.016 105.024 20.016 105.024h165.072z" fill="#87a0af"/><path d="m90.928 120.952h165.072v210.048h-165.072z" fill="#b4d2d7"/><path d="m391.072 150.952h-135.072l-20.016 75.024 20.016 75.024h135.072z" fill="#b4d2d7"/><path d="m120.928 150.952h135.072v150.048h-135.072z" fill="#e1ebf0"/><g fill="#04303e"><path d="m271.024 180.952h30v30h-30z"/><path d="m331.072 180.952h30v30h-30z"/><path d="m271.024 241h30v30h-30z"/><path d="m331.072 241h30v30h-30z"/></g><path d="m150.928 180.952h90.048v90.048h-90.048z" fill="#09607d"/></g></svg>