<svg id="Capa_1" enable-background="new 0 0 511.977 511.977" height="512" viewBox="0 0 511.977 511.977" width="512" xmlns="http://www.w3.org/2000/svg"><g><path d="m387.983 36.903-131.995-36.903-20.016 255.977 20.016 256c131.629-31.22 224.567-148.78 224.567-284.061v-94.009c-48.128-9.111-85.671-48.13-92.572-97.004z" fill="#ffda44"/><path d="m123.994 36.903c-6.902 48.874-44.444 87.894-92.573 97.003v94.009c0 135.281 92.938 252.841 224.567 284.061v-511.976z" fill="#fff68e"/><path d="m354.546 69.089-98.558-27.555-20.016 214.445 20.016 214.7c51.243-14.25 97.222-44.719 130.266-86.517 35.017-44.294 54.302-99.783 54.302-156.247v-64.658c-40.723-17.537-72.166-51.831-86.01-94.168z" fill="#00aa95"/><path d="m157.431 69.089c-13.843 42.337-45.287 76.631-86.01 94.168v64.658c0 56.464 19.285 111.953 54.302 156.247 33.044 41.798 79.023 72.266 130.266 86.517v-429.145z" fill="#00cc76"/><path d="m316.012 211.059v-30h-45.024v-30h-15l-10.008 43.715 10.008 16.285z" fill="#e1ebf0"/><path d="m286.012 271.106v30.048h-30.024l-10.008 15.619 10.008 44.381h15v-30h45.024v-90.048h-60.024l-10.008 15 10.008 15z" fill="#e1ebf0"/><g fill="#fff5f5"><path d="m195.964 301.154v30h45.024v30h15v-60z"/><path d="m225.964 211.059h30.024v-60h-15v30h-45.024v90.047h60.024v-30h-30.024z"/></g></g></svg>