<svg id="Capa_1" enable-background="new 0 0 512 512" height="512" viewBox="0 0 512 512" width="512" xmlns="http://www.w3.org/2000/svg"><g><path d="m241 0h30v305.232h-30z" fill="#09607d"/><path d="m431.785 285.147h-175.785l-20.016 113.427 20.016 113.426h175.785z" fill="#00aa95"/><path d="m80.215 285.147h175.785v226.853h-175.785z" fill="#00cc76"/><path d="m401.785 420.094v-43.04c-34.041-.221-61.685-27.865-61.906-61.907h-83.879l-20.016 83.427 20.016 83.426h83.879c.221-34.041 27.865-61.685 61.906-61.906z" fill="#00cc76"/><path d="m172.121 315.147c-.221 34.042-27.865 61.686-61.906 61.907v43.04c34.041.221 61.685 27.865 61.906 61.906h83.879v-166.853z" fill="#a5e887"/><path d="m401.785 347.054c-17.499-.219-31.687-14.407-31.906-31.907h31.906z" fill="#00cc76"/><path d="m142.121 315.147c-.219 17.5-14.407 31.688-31.906 31.907v-31.907z" fill="#a5e887"/><path d="m110.215 450.094c17.498.219 31.686 14.406 31.906 31.906h-31.906z" fill="#a5e887"/><path d="m369.879 482c.22-17.499 14.408-31.687 31.906-31.906v31.906z" fill="#00cc76"/><path d="m307.51 398.574c0-28.402-23.107-51.51-51.51-51.51l-10.008 15.583 10.008 14.417c11.86 0 21.51 9.649 21.51 21.51s-9.649 21.51-21.51 21.51l-10.008 13.563 10.008 16.437c28.403 0 51.51-23.107 51.51-51.51z" fill="#e1ebf0"/><path d="m234.49 398.574c0-11.86 9.649-21.51 21.51-21.51v-30c-28.403 0-51.51 23.107-51.51 51.51s23.107 51.51 51.51 51.51v-30c-11.86 0-21.51-9.649-21.51-21.51z" fill="#fff5f5"/><path d="m300.074 32.503 53.654 179.425h98.235c.001-90.237-65.71-165.115-151.889-179.425z" fill="#ff415b"/><path d="m270.06 30.024h-14.06l-20.016 92.201 20.016 89.703h97.729c-2.525-80.218-23.853-148.121-53.654-179.425-9.766-1.622-19.789-2.479-30.015-2.479z" fill="#e1ebf0"/><path d="m60.036 211.928h98.235l53.654-179.425c-86.178 14.31-151.889 89.188-151.889 179.425z" fill="#ff7c48"/><path d="m241.94 30.024c-10.225 0-20.249.857-30.014 2.479-29.801 31.303-51.129 99.207-53.654 179.425h97.728v-181.904z" fill="#fff5f5"/></g></svg>