<svg id="Capa_1" enable-background="new 0 0 512 512" height="512" viewBox="0 0 512 512" width="512" xmlns="http://www.w3.org/2000/svg"><g><path d="m481.976 75.229-225.976-75.217-20.016 391.881h245.992z" fill="#b4d2d7"/><path d="m30.024 75.229v316.664h225.976v-391.881z" fill="#e1ebf0"/><path d="m256 361.893h195.976v-200.8l-215.992-20.016z" fill="#e1ebf0"/><path d="m60.024 161.093v200.8h195.976v-220.816z" fill="#fff5f5"/><path d="m256 31.631-20.016 119.478 215.992-20.016v-34.232z" fill="#e1ebf0"/><path d="m256 31.631-195.976 65.23v34.232l195.976 20.016z" fill="#fff5f5"/><path d="m90.072 146.093h30v230.8h-30z" fill="#e1ebf0"/><path d="m391.928 146.093h30v230.8h-30z" fill="#b4d2d7"/><path d="m256 131.093h195.976v30h-195.976z" fill="#87a0af"/><path d="m60.024 131.093h195.976v30h-195.976z" fill="#b4d2d7"/><path d="m326.352 251.189h-70.352l-20.016 140.704h90.368z" fill="#87a0af"/><path d="m185.648 251.189h70.352v140.703h-70.352z" fill="#b4d2d7"/><path d="m185.637 191.141h70.363v30h-70.363z" fill="#b4d2d7"/><path d="m256 191.141h70.363v30h-70.363z" fill="#87a0af"/><path d="m296.352 281.189h-40.352l-20.016 100.72 60.368-20.016z" fill="#04303e"/><path d="m215.648 281.189v80.704l40.352 20.016v-100.72z" fill="#09607d"/><path d="m512 401.925v-40.032h-256l-20.016 60.048z" fill="#b4d2d7"/><path d="m256 401.925-20.016 60.048 276.016-20.016v-40.032z" fill="#87a0af"/><path d="m256 361.893h-256v40.032l256 20.016z" fill="#e1ebf0"/><path d="m256 401.925h-256v40.032l256 20.016z" fill="#b4d2d7"/><path d="m256 511.988h256v-70.031h-256l-20.016 35.015z" fill="#b4d2d7"/><path d="m0 441.957h256v70.032h-256z" fill="#e1ebf0"/></g></svg>